<svg class="icon" viewBox="0 0 3888 1024" xmlns="http://www.w3.org/2000/svg" width="759.4" height="200"><defs><style/></defs><path d="M378.5 807.7v168h265.8C832 975.7 985 822.7 985 635V34.5H384.3A341.3 341.3 0 0 0 43.7 375.1v600.6h168V375c0-95.5 78.2-173.8 173.7-173.8H818V634c0 95.5-78.2 173.7-173.7 173.7" fill="#008AC4"/><path d="M378.5 375V641h265.8c2.3 0 5.8-3.5 5.8-5.8V369.3H384.3c-2.3 0-5.8 3.5-5.8 5.8" fill="#B5CD42"/><path d="M1544 377.4c0 31-5.7 59.8-18.4 87.4a204.3 204.3 0 0 1-49.4 70.2 306.8 306.8 0 0 1-49.5 36.8 206.5 206.5 0 0 1-59.8 21.9v299.1h-95.5V593.7a213.8 213.8 0 0 1-111.6-59.8c-20.7-19.6-38-42.6-49.5-70.2s-18.4-56.4-18.4-87.5V106h95.5v270.3a114 114 0 0 0 10.3 48.4c7 15 16.1 28.7 27.6 40.2s25.4 20.7 41.5 26.5c16 6.9 32.2 10.3 50.6 10.3s35.7-3.4 51.8-10.3 29.9-16.1 41.4-26.5c24.2-24.1 36.8-54 36.8-88.6V106h96.7v271.5zm568.4 242.8c0 17.2-1.1 33.3-3.4 49.4h-437.2c5.7 19.6 12.6 38 24.1 54.1 10.4 16.1 23 31 38 43.7 15 12.7 31 23 48.3 30s36.8 10.3 56.4 10.3c34.5 0 65.6-7 94.3-19.6 27.7-12.6 49.5-36.8 64.5-70.1h100a261 261 0 0 1-37.9 75.9 232.4 232.4 0 0 1-58.7 57.5c-23 16.1-47.1 28.8-74.8 36.8s-56.3 12.7-87.4 12.7c-38 0-73.6-7-107-21.9a269.8 269.8 0 0 1-143.8-149.5A294.6 294.6 0 0 1 1567 619a304 304 0 0 1 20.7-113.9c13.8-34.5 33.3-64.4 57.5-89.7s53-45 86.3-58.7c33.4-13.8 69-20.7 107-20.7s73.6 6.9 107 20.7a262.8 262.8 0 0 1 87.4 57.5 276 276 0 0 1 58.7 89.7 316.3 316.3 0 0 1 20.7 116.3zm-269.2-188.7a174 174 0 0 0-61 10.3 165 165 0 0 0-51.8 30 156 156 0 0 0-39 47.1 217.7 217.7 0 0 0-23 63.3h345c-8-47.2-27.5-84-58.6-111.6a173.9 173.9 0 0 0-111.6-39.1zm859.5 188.7c0 17.2-1.2 33.3-3.5 49.4H2262c5.8 19.6 12.7 38 24.2 54.1 10.3 16.1 23 31 38 43.7 14.9 12.7 31 23 48.3 30s36.8 10.3 56.3 10.3c34.6 0 65.6-7 94.4-19.6s49.5-36.8 64.4-70.1h100.1a261 261 0 0 1-38 75.9 232.4 232.4 0 0 1-58.6 57.5 251.9 251.9 0 0 1-74.8 36.8c-27.6 8-56.4 12.7-87.5 12.7-38 0-73.6-7-107-21.9A269.8 269.8 0 0 1 2178 729.5a294.6 294.6 0 0 1-20.7-110.5c0-41.4 7-79.4 20.7-113.9s33.4-64.4 57.5-89.7 53-45 86.3-58.7c33.4-13.8 69-20.7 107-20.7s73.7 6.9 107 20.7a262.8 262.8 0 0 1 87.5 57.5 276 276 0 0 1 58.7 89.7 342 342 0 0 1 20.7 116.3zm-270.4-188.7a174 174 0 0 0-61 10.3 165 165 0 0 0-51.8 30 156 156 0 0 0-39 47.1 217.7 217.7 0 0 0-23.1 63.3h345.2c-8-47.2-27.6-84-58.7-111.6a169.5 169.5 0 0 0-111.6-39.1z" fill="#008AC4"/><path d="M3291.8 620.2c0 17.2-1.2 33.3-3.5 49.4h-437.2a207 207 0 0 0 23 54.1c10.4 16.1 23 31 38 43.7 15 12.7 31 23 48.3 30s36.8 10.3 56.4 10.3c34.5 0 65.6-7 94.3-19.6 27.6-12.6 49.5-36.8 64.5-70.1h100a261 261 0 0 1-38 75.9 232.4 232.4 0 0 1-58.6 57.5c-23 16.1-47.2 28.8-74.8 36.8s-56.4 12.7-87.4 12.7c-38 0-73.7-7-107-21.9A269.8 269.8 0 0 1 2766 729.5a294.6 294.6 0 0 1-20.8-110.5c0-41.4 7-79.4 20.8-113.9s33.3-64.4 57.5-89.7 52.9-45 86.3-58.7c33.3-13.8 69-20.7 107-20.7s73.6 6.9 107 20.7a262.8 262.8 0 0 1 87.4 57.5 276 276 0 0 1 58.7 89.7c15 35.7 21.9 73.7 21.9 116.3zm-269.3-188.7a174 174 0 0 0-61 10.3 165 165 0 0 0-51.7 30 156 156 0 0 0-39.1 47.1 217.7 217.7 0 0 0-23 63.3h345.1c-8-47.2-27.6-84-58.7-111.6a173.9 173.9 0 0 0-111.6-39.1zm724.9 15c-24.2 6.8-46 16-66.8 29.8-19.5 13.8-35.6 31.1-48.3 54.1S3614 581 3614 615.6c0 32.2 5.8 59.8 18.4 81.6 12.7 23 28.8 41.5 48.3 55.3a216 216 0 0 0 66.8 34.5c24.1 8 48.3 13.8 72.5 17.2v88.6a495.6 495.6 0 0 1-139.3-33.3 328.5 328.5 0 0 1-62-34.5 258.3 258.3 0 0 1-51.9-48.4 207.2 207.2 0 0 1-49.4 50.7 328.5 328.5 0 0 1-62.2 34.5c-23 9.2-46 16-70.1 20.7-24.2 4.6-48.4 8-71.4 10.3v-89.7c23-3.5 47.2-8 71.4-15s46-17.2 66.7-31c19.5-13.8 35.7-31.1 48.3-53s18.4-48.3 18.4-80.5c0-34.5-5.7-63.3-18.4-87.4s-28.8-42.6-48.3-56.4a211.5 211.5 0 0 0-66.7-32.2 409.9 409.9 0 0 0-71.4-13.8v-82.9c23 1.2 47.2 4.6 70.2 9.2s46 10.4 69 19.6c21.9 8 42.6 18.4 62.2 31a223.8 223.8 0 0 1 51.7 47.2c13.8-20.7 31.1-36.8 49.5-49.5 19.6-12.6 39.1-23 62.1-31 22-8 45-13.8 70.2-17.3 24.2-3.4 48.4-6.9 72.5-9.2v84c-25.3 0-49.5 4.6-73.6 11.5z" fill="#B5CD42"/></svg>